<svg width="34" height="34" viewBox="0 0 34 34" fill="none" xmlns="http://www.w3.org/2000/svg">
<path d="M17 32.4062C16.2562 32.4062 15.559 32.1141 15.0344 31.5895L12.657 29.2121C12.3316 28.8867 11.9 28.7074 11.4418 28.7074H8.07499C6.54101 28.7074 5.29257 27.459 5.29257 25.925V22.5582C5.29257 22.1 5.11328 21.6684 4.78788 21.343L2.41054 18.9656C1.32812 17.8832 1.32812 16.1168 2.41054 15.0344L4.78788 12.657C5.11328 12.3316 5.29257 11.9 5.29257 11.4418V8.075C5.29257 6.54102 6.54101 5.29258 8.07499 5.29258H11.4418C11.9 5.29258 12.3316 5.11328 12.657 4.78789L15.0344 2.41055C15.559 1.88594 16.2562 1.59375 17 1.59375C17.7437 1.59375 18.441 1.88594 18.9656 2.41055L21.343 4.78789C21.6684 5.11328 22.1 5.29258 22.5582 5.29258H25.925C27.459 5.29258 28.7074 6.54102 28.7074 8.075V11.4418C28.7074 11.9 28.8867 12.3316 29.2121 12.657L31.5894 15.0344C32.6719 16.1168 32.6719 17.8832 31.5894 18.9656L29.2121 21.343C28.8867 21.6684 28.7074 22.1 28.7074 22.5582V25.925C28.7074 27.459 27.459 28.7074 25.925 28.7074H22.5582C22.1 28.7074 21.6684 28.8867 21.343 29.2121L18.9656 31.5895C18.441 32.1141 17.7437 32.4062 17 32.4062ZM8.07499 6.35508C7.12538 6.35508 6.35507 7.12539 6.35507 8.075V11.4418C6.35507 12.1855 6.06288 12.8828 5.53828 13.4074L3.16093 15.7848C2.49023 16.4555 2.49023 17.5445 3.16093 18.2152L5.53828 20.5926C6.06288 21.1172 6.35507 21.8145 6.35507 22.5582V25.925C6.35507 26.8746 7.12538 27.6449 8.07499 27.6449H11.4418C12.1855 27.6449 12.8828 27.9371 13.4074 28.4617L15.7848 30.8391C16.1102 31.1645 16.5418 31.3438 17 31.3438C17.4582 31.3438 17.8898 31.1645 18.2152 30.8391L20.5926 28.4617C21.1172 27.9371 21.8144 27.6449 22.5582 27.6449H25.925C26.8746 27.6449 27.6449 26.8746 27.6449 25.925V22.5582C27.6449 21.8145 27.9371 21.1172 28.4617 20.5926L30.8391 18.2152C31.5098 17.5445 31.5098 16.4555 30.8391 15.7848L28.4617 13.4074C27.9371 12.8828 27.6449 12.1855 27.6449 11.4418V8.075C27.6449 7.12539 26.8746 6.35508 25.925 6.35508H22.5582C21.8144 6.35508 21.1172 6.06289 20.5926 5.53828L18.2152 3.16094C17.8898 2.83555 17.4582 2.65625 17 2.65625C16.5418 2.65625 16.1102 2.83555 15.7848 3.16094L13.4074 5.53828C12.8828 6.06289 12.1855 6.35508 11.4418 6.35508H8.07499Z" fill="black"/>
<path d="M17 26.7019C11.6476 26.7019 7.29803 22.3457 7.29803 17C7.29803 11.6543 11.6476 7.29803 17 7.29803C22.3523 7.29803 26.7019 11.6476 26.7019 17C26.7019 22.3523 22.3523 26.7019 17 26.7019ZM17 8.36053C12.232 8.36053 8.36053 12.2387 8.36053 17C8.36053 21.7613 12.232 25.6394 17 25.6394C21.768 25.6394 25.6394 21.7613 25.6394 17C25.6394 12.2387 21.768 8.36053 17 8.36053Z" fill="black"/>
<path d="M20.7188 22.3125H13.2813C13.0422 22.3125 12.8363 22.1531 12.7699 21.9273L10.6449 14.4434C10.5852 14.2309 10.6648 13.9984 10.8441 13.8656C11.0234 13.7328 11.2691 13.7262 11.4484 13.8523L14.1777 15.6719L16.5418 11.8867C16.6414 11.734 16.8074 11.6344 16.9934 11.6344C17.1793 11.6344 17.3453 11.7273 17.4449 11.8867L19.809 15.6719L22.5383 13.8523C22.7242 13.7262 22.9633 13.7328 23.1426 13.8656C23.3219 13.9984 23.4016 14.2242 23.3418 14.4434L21.2168 21.9273C21.1637 22.1531 20.9578 22.3125 20.7188 22.3125ZM13.6797 21.25H20.3203L21.9406 15.5391L19.9551 16.8672C19.8356 16.9469 19.6895 16.9734 19.55 16.9469C19.4106 16.9137 19.2844 16.834 19.2113 16.7078L17 13.175L14.7953 16.7012C14.7223 16.8207 14.5961 16.907 14.4566 16.9402C14.3172 16.9734 14.1711 16.9402 14.0516 16.8605L12.066 15.5324L13.6797 21.25Z" fill="black"/>
</svg>
