<svg width="34" height="34" viewBox="0 0 34 34" fill="none" xmlns="http://www.w3.org/2000/svg">
<g clip-path="url(#clip0_7_60)">
<g clip-path="url(#clip1_7_60)">
<path d="M33.0318 0.298292C32.8195 0.240481 32.5931 0.312978 32.4538 0.483341C28.8666 4.86767 24.66 4.7718 20.211 4.66813C18.865 4.63803 17.4799 4.61239 16.0865 4.70547C16.0557 4.70472 16.0249 4.70677 15.9945 4.7116C15.8473 4.72164 15.7008 4.72665 15.5542 4.74003C13.3926 4.93202 11.2918 5.55759 9.37731 6.57937C9.33242 6.59587 9.28989 6.61817 9.25079 6.6457C5.88505 8.45184 3.36968 11.5152 2.25292 15.168C1.29125 18.4364 1.58607 21.9463 3.07951 25.0085C2.90505 25.2872 2.67485 25.6383 2.32315 26.1662C0.925826 28.2436 0.122533 30.6633 0 33.164C0 33.4719 0.249546 33.7214 0.557377 33.7214H6.13115C6.43898 33.7214 6.68852 33.4719 6.68852 33.164C6.68852 32.8562 6.43898 32.6067 6.13115 32.6067H1.90289L3.73833 30.7712C3.83809 30.6717 3.89644 30.538 3.90164 30.3972C3.98465 29.0046 4.16625 27.6195 4.44508 26.2526C5.5219 26.691 6.67463 26.9128 7.83728 26.9052C11.1859 26.8921 14.2939 25.1628 16.0703 22.3242C19.0205 17.8986 19.1175 17.8456 21.5972 16.4795C22.6852 15.8798 24.1762 15.0588 26.4983 13.5655C34.5139 8.41649 33.4839 1.0619 33.4359 0.75144C33.4025 0.533843 33.2442 0.356285 33.0318 0.298292ZM2.79859 30.1347L1.28921 31.6435C1.6047 29.9411 2.25264 28.3175 3.196 26.8657C3.00419 27.9473 2.87153 29.0386 2.79859 30.1347ZM25.8952 12.6297L25.8545 12.6553C25.2899 12.5915 24.7488 12.3933 24.2766 12.0773C24.0204 11.9065 23.6743 11.9756 23.5035 12.2317C23.3326 12.4879 23.4018 12.834 23.6579 13.0048C23.9426 13.1913 24.2466 13.3464 24.5647 13.4674C23.0119 14.4267 21.9077 15.037 21.0588 15.5047C20.0183 15.9974 19.065 16.6563 18.2363 17.4555C17.2395 17.5906 16.2248 17.4539 15.2994 17.0597C15.0242 16.9212 14.6888 17.032 14.5503 17.3072C14.4118 17.5824 14.5226 17.9178 14.7978 18.0563C15.5743 18.4194 16.4215 18.6064 17.2787 18.6037C16.7876 19.2597 16.2035 20.1203 15.4282 21.2791C14.0348 21.8955 12.0594 22.4044 10.2814 21.5171C10.0063 21.3826 9.6743 21.4952 9.53775 21.7692C9.4012 22.0433 9.51123 22.3761 9.7842 22.5148C10.5932 22.9145 11.4848 23.1186 12.3871 23.1106C13.0077 23.106 13.6254 23.0255 14.2265 22.8709C11.8742 25.618 8.01827 26.5338 4.68197 25.1378C4.79679 24.6445 4.92554 24.1345 5.07547 23.605C8.24918 15.1697 12.1218 14.0181 17.4805 12.4218C20.8144 11.5435 24.0239 10.2474 27.0328 8.56419C27.2142 8.46929 27.329 8.28257 27.3318 8.07785C27.3345 7.87314 27.2248 7.68338 27.0461 7.5836C26.8673 7.48383 26.6482 7.4901 26.4754 7.59993C23.5426 9.23733 20.4152 10.4989 17.1672 11.355C11.7149 12.9775 7.40754 14.26 4.03931 23.2087L3.79574 23.6948L3.75672 23.7728C2.6804 21.1395 2.52755 18.2192 3.32308 15.4879C3.33813 15.4383 3.3582 15.3909 3.3738 15.3413C3.51248 15.8392 3.72256 16.3144 3.99751 16.7521C4.16835 17.0082 4.51447 17.0773 4.77059 16.9065C5.0267 16.7356 5.09583 16.3895 4.92498 16.1334C4.47791 15.3157 4.20091 14.4161 4.11066 13.4886C5.03282 11.6299 6.37605 10.012 8.03347 8.76373C7.51925 9.95696 7.25137 11.2418 7.2459 12.5411C7.2459 12.8489 7.49545 13.0985 7.80328 13.0985C8.11111 13.0985 8.36065 12.8489 8.36065 12.5411C8.38346 10.7529 8.93778 9.01191 9.95308 7.53973C11.4614 6.7411 13.0956 6.20701 14.7844 5.96069C14.4887 6.37845 14.2243 6.81756 13.9935 7.27442C13.9039 7.45245 13.9161 7.66475 14.0254 7.83137C14.1348 7.99798 14.3248 8.0936 14.5237 8.08219C14.7227 8.07078 14.9005 7.95409 14.9901 7.77606C15.3489 7.06506 15.7986 6.40368 16.3278 5.80852C17.6159 5.73216 18.9174 5.75278 20.1832 5.784C20.6291 5.79459 21.0778 5.80406 21.5259 5.80964C21.3916 6.14293 21.281 6.48527 21.1948 6.8341C21.1468 7.02745 21.2056 7.23172 21.3491 7.36996C21.4925 7.5082 21.6989 7.55941 21.8903 7.50429C22.0818 7.44917 22.2293 7.29611 22.2772 7.10275C22.385 6.65412 22.5451 6.21973 22.7544 5.80852C26.0852 5.7578 29.4072 5.21269 32.3686 2.24131C32.2682 4.47973 31.3469 9.12492 25.8952 12.6297Z" fill="black"/>
<path d="M26.1967 33.7213C26.5045 33.7213 26.7541 33.4718 26.7541 33.1639C26.7541 32.8561 26.5045 32.6066 26.1967 32.6066H8.36065C8.05282 32.6066 7.80328 32.8561 7.80328 33.1639C7.80328 33.4718 8.05282 33.7213 8.36065 33.7213H26.1967Z" fill="black"/>
</g>
</g>
<defs>
<clipPath id="clip0_7_60">
<rect width="34" height="34" fill="white"/>
</clipPath>
<clipPath id="clip1_7_60">
<rect width="34" height="34" fill="white"/>
</clipPath>
</defs>
</svg>
