<svg width="34" height="34" viewBox="0 0 34 34" fill="none" xmlns="http://www.w3.org/2000/svg">
<g clip-path="url(#clip0_7_110)">
<g clip-path="url(#clip1_7_110)">
<path d="M14.0778 26.169C13.9277 26.1693 13.7782 26.1502 13.6331 26.112C12.9081 25.9181 12.4302 25.2657 12.0089 24.69C11.7764 24.3157 11.4758 23.9884 11.1226 23.7251C10.711 23.5457 10.2692 23.4456 9.82048 23.4301C9.08535 23.3479 8.32218 23.2634 7.80162 22.7409C7.28105 22.2185 7.19605 21.4586 7.11243 20.7221C7.09702 20.2734 6.99726 19.8317 6.81837 19.42C6.55474 19.067 6.22751 18.7665 5.85351 18.5337C5.27735 18.1124 4.62491 17.6341 4.43148 16.9095C4.2454 16.2134 4.54864 15.5196 4.8427 14.8488C5.05733 14.4422 5.19414 13.999 5.2461 13.5421C5.19414 13.0852 5.05733 12.6421 4.8427 12.2354C4.54864 11.5646 4.2454 10.8713 4.43148 10.1752C4.62491 9.45016 5.27735 8.97233 5.85305 8.551C6.22705 8.31822 6.55428 8.01763 6.81791 7.6647C6.99692 7.25299 7.09683 6.81127 7.11243 6.3626C7.19467 5.62746 7.27967 4.86476 7.80162 4.34419C8.32356 3.82362 9.08443 3.73862 9.82048 3.655C10.2692 3.63955 10.711 3.53947 11.1226 3.36003C11.4759 3.09669 11.7767 2.76941 12.0093 2.39516C12.4307 1.81946 12.9085 1.16703 13.6331 0.973595C14.3287 0.787055 15.0229 1.09076 15.6938 1.38481C16.1 1.60067 16.543 1.73873 17 1.79189C17.4569 1.73993 17.9 1.60312 18.3067 1.38849C18.9775 1.09489 19.6727 0.79119 20.3669 0.977271C21.0919 1.1707 21.5698 1.8236 21.9911 2.4016C22.2238 2.77565 22.5244 3.1029 22.8774 3.36646C23.289 3.54574 23.7308 3.64566 24.1795 3.66097C24.9146 3.74322 25.6778 3.82822 26.1984 4.35016C26.7189 4.87211 26.8039 5.63251 26.8876 6.36903C26.9031 6.81766 27.0028 7.25937 27.1816 7.67114C27.4454 8.02383 27.7726 8.32424 28.1465 8.55697C28.7226 8.97876 29.3751 9.4566 29.5685 10.1816C29.7546 10.8777 29.4513 11.5715 29.1573 12.2423C28.9426 12.6488 28.8058 13.0918 28.7539 13.5485C28.8058 14.0054 28.9427 14.4486 29.1573 14.8552C29.4513 15.5261 29.7546 16.2194 29.5685 16.9155C29.3751 17.6405 28.7226 18.1183 28.1469 18.5401C27.7728 18.7727 27.4456 19.0733 27.1821 19.4264C27.003 19.8381 26.9031 20.2798 26.8876 20.7285C26.8053 21.4637 26.7203 22.2264 26.1984 22.7469C25.6764 23.2675 24.9156 23.3525 24.1795 23.4361C23.7308 23.4514 23.289 23.5513 22.8774 23.7306C22.5241 23.994 22.2233 24.3212 21.9906 24.6955C21.5693 25.2712 21.0915 25.9236 20.3669 26.1171C19.6704 26.3008 18.977 25.9999 18.3062 25.7063C17.9001 25.4898 17.4571 25.3511 17 25.2974C16.5431 25.3493 16.1 25.4862 15.6933 25.7008C15.1919 25.9641 14.6424 26.1234 14.0778 26.169ZM17 24.3771C17.5852 24.4213 18.1553 24.5845 18.6752 24.8568C19.2265 25.0975 19.7434 25.3249 20.1298 25.2243C20.5433 25.1141 20.8856 24.6445 21.25 24.1474C21.552 23.6653 21.9493 23.25 22.4175 22.927C22.9371 22.6777 23.5021 22.537 24.078 22.5135C24.684 22.446 25.256 22.3821 25.5482 22.0894C25.8405 21.7968 25.9052 21.2243 25.9723 20.6192C25.9955 20.0433 26.1362 19.4782 26.3858 18.9587C26.7082 18.4908 27.1224 18.0936 27.6034 17.7912C28.1005 17.4273 28.5683 17.0832 28.6808 16.671C28.7833 16.286 28.5559 15.7664 28.3133 15.2164C28.0407 14.6965 27.8771 14.1265 27.8327 13.5412C27.8769 12.956 28.0404 12.386 28.3133 11.8665C28.554 11.3151 28.7815 10.7968 28.6785 10.4114C28.5687 9.99784 28.0987 9.65508 27.6011 9.29119C27.1201 8.98879 26.7059 8.59155 26.3835 8.1237C26.134 7.60433 25.9933 7.03942 25.97 6.46368C25.9025 5.85765 25.8386 5.28562 25.5455 4.99341C25.2523 4.70119 24.6808 4.63687 24.0752 4.56932C23.4994 4.54584 22.9343 4.40513 22.4147 4.15581C21.9481 3.83387 21.5518 3.4204 21.25 2.94054C20.8856 2.44341 20.542 1.97568 20.1298 1.86357C19.7462 1.76111 19.2252 1.98808 18.6752 2.23114C18.1553 2.50346 17.5852 2.66669 17 2.71081C16.4146 2.66583 15.8445 2.50166 15.3248 2.22838C14.7735 1.98762 14.2547 1.76019 13.8702 1.86311C13.4566 1.97292 13.1143 2.44295 12.75 2.94008C12.4477 3.42137 12.0504 3.83598 11.5825 4.15857C11.0629 4.40789 10.4979 4.5486 9.92202 4.57208C9.316 4.63962 8.74397 4.70303 8.45175 4.99616C8.15954 5.2893 8.09521 5.86087 8.02767 6.46643C8.00445 7.04248 7.86373 7.60769 7.61416 8.12738C7.29184 8.59522 6.87755 8.99247 6.39659 9.29487C5.899 9.65876 5.42943 10.0029 5.31916 10.4146C5.2167 10.7996 5.44413 11.3192 5.68673 11.8692C5.95931 12.3891 6.12285 12.9591 6.16732 13.5444C6.12307 14.1297 5.95951 14.6998 5.68673 15.2196C5.44597 15.7709 5.21854 16.2892 5.32145 16.6747C5.43127 17.0882 5.90129 17.4305 6.39889 17.7949C6.87976 18.0972 7.29404 18.4943 7.61645 18.9619C7.866 19.4814 8.00671 20.0465 8.02997 20.6224C8.09751 21.2284 8.16137 21.8004 8.45451 22.0926C8.74764 22.3849 9.31921 22.4492 9.92478 22.5167C10.5006 22.5404 11.0656 22.6811 11.5853 22.9302C12.0529 23.2528 12.45 23.6673 12.7523 24.1483C13.1166 24.6454 13.4603 25.1131 13.8725 25.2252C14.2575 25.3286 14.7767 25.1007 15.3271 24.8577C15.8464 24.5859 16.4156 24.4228 17 24.3785V24.3771Z" fill="black"/>
<path d="M17 22.3637C15.2552 22.3637 13.5497 21.8464 12.099 20.877C10.6483 19.9077 9.51757 18.5299 8.84989 16.918C8.1822 15.3061 8.0075 13.5323 8.34788 11.8211C8.68827 10.1099 9.52845 8.53801 10.7622 7.30429C11.9959 6.07056 13.5678 5.23038 15.279 4.89C16.9902 4.54961 18.7639 4.72431 20.3759 5.392C21.9878 6.05969 23.3656 7.19038 24.3349 8.64108C25.3042 10.0918 25.8216 11.7974 25.8216 13.5421C25.8193 15.881 24.8892 18.1235 23.2353 19.7774C21.5814 21.4313 19.3389 22.3614 17 22.3637ZM17 5.64217C15.437 5.64217 13.9091 6.10565 12.6095 6.97401C11.3099 7.84237 10.297 9.07661 9.69886 10.5206C9.10072 11.9647 8.94422 13.5536 9.24915 15.0866C9.55407 16.6196 10.3067 18.0277 11.4119 19.1329C12.5172 20.2381 13.9253 20.9908 15.4583 21.2957C16.9912 21.6007 18.5802 21.4442 20.0242 20.846C21.4683 20.2479 22.7025 19.235 23.5709 17.9354C24.4392 16.6358 24.9027 15.1079 24.9027 13.5449C24.9006 11.4496 24.0674 9.4407 22.5858 7.9591C21.1042 6.47751 19.0953 5.64424 17 5.64217Z" fill="black"/>
<path d="M19.6529 17.5854C19.5785 17.5853 19.5052 17.5672 19.4393 17.5325L17 16.2502L14.5607 17.5325C14.4847 17.5726 14.3989 17.5906 14.3131 17.5843C14.2274 17.5781 14.1451 17.5479 14.0756 17.4972C14.0062 17.4465 13.9523 17.3774 13.9202 17.2976C13.8881 17.2178 13.8791 17.1306 13.8941 17.046L14.36 14.3292L12.3843 12.4059C12.3228 12.346 12.2794 12.2702 12.2588 12.1869C12.2383 12.1036 12.2415 12.0162 12.268 11.9346C12.2945 11.8531 12.3434 11.7806 12.409 11.7253C12.4746 11.6701 12.5544 11.6343 12.6393 11.622L15.3662 11.2255L16.5865 8.75639C16.6287 8.68475 16.6889 8.62536 16.7611 8.58411C16.8333 8.54285 16.915 8.52115 16.9982 8.52115C17.0813 8.52115 17.163 8.54285 17.2352 8.58411C17.3074 8.62536 17.3676 8.68475 17.4099 8.75639L18.6302 11.2278L21.3571 11.6243C21.442 11.6366 21.5217 11.6724 21.5874 11.7276C21.653 11.7829 21.7018 11.8554 21.7284 11.9369C21.7549 12.0185 21.7581 12.1059 21.7375 12.1892C21.717 12.2725 21.6735 12.3483 21.6121 12.4082L19.6364 14.3315L20.106 17.046C20.1173 17.1119 20.114 17.1796 20.0965 17.2441C20.0789 17.3087 20.0475 17.3687 20.0043 17.4198C19.9612 17.471 19.9074 17.5121 19.8467 17.5403C19.786 17.5685 19.7199 17.5831 19.6529 17.5831V17.5854ZM17 15.2715C17.0746 15.2715 17.1481 15.2896 17.2141 15.3244L19.0428 16.286L18.694 14.2488C18.6814 14.1754 18.6868 14.1 18.7098 14.0292C18.7328 13.9584 18.7726 13.8942 18.8259 13.8421L20.3054 12.3999L18.2608 12.1026C18.187 12.0919 18.117 12.0633 18.0567 12.0195C17.9964 11.9756 17.9477 11.9177 17.9148 11.8509L17 9.99785L16.0852 11.8509C16.0523 11.9177 16.0036 11.9756 15.9433 12.0195C15.8831 12.0633 15.813 12.0919 15.7393 12.1026L13.6947 12.3999L15.1741 13.8421C15.2274 13.8942 15.2673 13.9584 15.2902 14.0292C15.3132 14.1 15.3186 14.1754 15.306 14.2488L14.9573 16.286L16.7859 15.3244C16.8519 15.2896 16.9254 15.2715 17 15.2715Z" fill="black"/>
<path d="M20.5608 33.0811C20.547 33.0811 20.5328 33.0811 20.519 33.0811C20.4328 33.0732 20.3506 33.0412 20.2819 32.9887C20.2131 32.9362 20.1606 32.8653 20.1303 32.7843L17.2757 25.1325C17.2563 25.0812 17.2464 25.0269 17.2463 24.9721C17.2448 24.8603 17.2842 24.7517 17.357 24.6668C17.4299 24.582 17.5312 24.5266 17.642 24.5111C17.7528 24.4956 17.8654 24.521 17.9588 24.5826C18.0521 24.6442 18.1198 24.7378 18.1491 24.8458L20.6573 31.5649L22.4896 28.4994C22.5431 28.4099 22.6255 28.3412 22.7232 28.3047C22.8209 28.2683 22.9281 28.2661 23.0272 28.2986L26.4272 29.4132L24.0614 23.0874C24.0218 22.974 24.0282 22.8496 24.0792 22.7408C24.1302 22.632 24.2218 22.5476 24.3343 22.5055C24.4469 22.4635 24.5714 22.4671 24.6812 22.5158C24.7911 22.5644 24.8775 22.6542 24.922 22.7658L27.6213 29.9876C27.6516 30.0686 27.6583 30.1565 27.6408 30.2412C27.6233 30.326 27.5822 30.404 27.5223 30.4664C27.4624 30.5288 27.3861 30.573 27.3022 30.594C27.2182 30.6149 27.1301 30.6118 27.0479 30.5849L23.0901 29.2869L20.955 32.8578C20.9142 32.9259 20.8564 32.9823 20.7873 33.0214C20.7183 33.0606 20.6402 33.0811 20.5608 33.0811Z" fill="black"/>
<path d="M13.4392 33.0811C13.3597 33.081 13.2817 33.0604 13.2126 33.0212C13.1435 32.982 13.0857 32.9255 13.045 32.8573L10.9099 29.2864L6.95207 30.5844C6.86987 30.6113 6.78173 30.6144 6.69781 30.5935C6.61389 30.5725 6.53759 30.5283 6.47768 30.4659C6.41778 30.4035 6.37671 30.3255 6.35919 30.2408C6.34167 30.156 6.34843 30.0681 6.37867 29.9871L9.07799 22.7653C9.12247 22.6537 9.20889 22.564 9.31874 22.5153C9.42858 22.4667 9.55311 22.463 9.66564 22.505C9.77818 22.5471 9.86976 22.6315 9.92078 22.7403C9.97179 22.8491 9.97817 22.9735 9.93856 23.0869L7.57372 29.4137L10.9737 28.299C11.0728 28.2665 11.18 28.2687 11.2777 28.3052C11.3754 28.3417 11.4578 28.4103 11.5113 28.4998L13.3427 31.5649L15.8633 24.8108C15.8835 24.7531 15.915 24.6999 15.9559 24.6545C15.9969 24.6091 16.0466 24.5723 16.102 24.5463C16.1573 24.5204 16.2173 24.5057 16.2785 24.5032C16.3396 24.5008 16.4006 24.5105 16.4579 24.5319C16.5152 24.5533 16.5677 24.586 16.6122 24.6279C16.6567 24.6699 16.6924 24.7203 16.7172 24.7762C16.7419 24.8322 16.7553 24.8925 16.7564 24.9537C16.7576 25.0148 16.7465 25.0756 16.7239 25.1324L13.8697 32.7824C13.8394 32.8635 13.7869 32.9343 13.7181 32.9868C13.6494 33.0394 13.5672 33.0714 13.481 33.0792C13.4672 33.0811 13.453 33.0811 13.4392 33.0811Z" fill="black"/>
</g>
</g>
<defs>
<clipPath id="clip0_7_110">
<rect width="34" height="34" fill="white"/>
</clipPath>
<clipPath id="clip1_7_110">
<rect width="34" height="34" fill="white"/>
</clipPath>
</defs>
</svg>
