<svg width="42" height="42" viewBox="0 0 42 42" fill="none" xmlns="http://www.w3.org/2000/svg">
<path d="M33.7725 35.9928C33.7345 35.9928 33.6966 35.9891 33.6593 35.9813C31.2172 35.4735 27.8967 33.808 26.3773 32.8776C23.6317 31.1962 21.5707 29.2814 20.5865 28.2895C19.2069 26.8993 18.23 25.1524 17.874 24.466C16.7742 22.345 15.3527 20.6096 14.273 19.4582L13.3793 20.3519C13.2383 20.4929 13.0098 20.4929 12.8688 20.3519L7.292 14.7751C7.0364 14.5195 6.89563 14.1797 6.89563 13.8181C6.89563 13.4567 7.0364 13.1169 7.292 12.8613L8.88768 11.2656C9.02869 11.1246 9.25715 11.1246 9.39816 11.2656C9.53909 11.4065 9.53909 11.635 9.39816 11.7761L7.80249 13.3717C7.55631 13.6179 7.55631 14.0185 7.80249 14.2646L13.1241 19.5863L14.0242 18.6861C14.0926 18.6177 14.1832 18.5807 14.2825 18.5804C14.3793 18.5812 14.4718 18.6209 14.539 18.6906C15.6749 19.8663 17.2867 21.765 18.5149 24.1337C18.8555 24.7907 19.7894 26.4615 21.0988 27.7811C22.0602 28.7498 24.0732 30.6201 26.7542 32.262C28.2235 33.1618 31.4155 34.7662 33.7642 35.2657C33.8873 35.1925 34.0533 34.875 34.0207 34.7658C33.8896 34.6214 33.8969 34.3978 34.0388 34.2623C34.1829 34.1247 34.4115 34.13 34.5491 34.2741C34.8018 34.5388 34.8098 34.9715 34.57 35.4035C34.3652 35.7727 34.0621 35.9928 33.7725 35.9928Z" fill="black"/>
<path d="M34.2883 34.8844C34.282 34.8844 34.2757 34.8842 34.2694 34.8839C32.2286 34.7771 29.6456 33.6368 25.894 31.1868C21.7584 28.486 20.4597 26.5984 19.2973 24.5835C18.128 22.5567 14.5457 17.756 12.7524 15.9628C10.7255 13.9358 9.48629 12.5925 8.85268 11.7353C8.78607 11.6452 8.76507 11.5293 8.79591 11.4216C9.15398 10.1684 11.3625 7.81831 14.4384 6.05472C14.6042 5.95965 14.8152 6.01026 14.9199 6.17006C15.7271 7.40209 18.7626 11.1044 19.9913 11.8118C20.8613 12.3127 22.9232 12.7709 24.2876 13.074C24.9558 13.2224 25.4838 13.3398 25.7627 13.4328C26.5279 13.6878 27.0789 13.9896 27.2811 14.6332C27.6862 15.9229 27.8918 18.5336 28.0731 20.8369C28.2031 22.488 28.3259 24.0477 28.4869 24.5306C28.8755 25.6966 30 27.4421 31.9903 28.8438C32.8246 29.4314 34.7951 30.9937 35.0725 32.8052C35.1815 33.5171 35.0141 34.169 34.5749 34.7429C34.5063 34.8323 34.4002 34.8844 34.2883 34.8844ZM9.54773 11.4578C10.1912 12.2916 11.3798 13.5693 13.2628 15.4523C15.1387 17.3282 18.7188 22.1364 19.9225 24.2228C21.0378 26.156 22.2865 27.9689 26.2887 30.5824C29.8033 32.8776 32.2304 33.9862 34.1097 34.1492C34.3469 33.7742 34.4285 33.3685 34.3589 32.9144C34.1956 31.848 33.1547 30.5468 31.5745 29.4339C29.4412 27.9314 28.227 26.0338 27.802 24.7588C27.6131 24.1922 27.4985 22.7365 27.3534 20.8935C27.1751 18.6285 26.973 16.0611 26.5924 14.8495C26.5222 14.6262 26.3885 14.4023 25.5344 14.1176C25.2908 14.0364 24.7533 13.9169 24.131 13.7787C22.6395 13.4473 20.5968 12.9935 19.6312 12.4374C18.3007 11.6715 15.5075 8.25792 14.5102 6.84903C11.7896 8.47161 9.96207 10.4668 9.54773 11.4578Z" fill="black"/>
<path d="M34.2882 34.8843C34.2819 34.8843 34.2757 34.8842 34.2694 34.8838C32.2285 34.7769 29.6454 33.6367 25.894 31.1868C21.7585 28.4861 20.4597 26.5984 19.2973 24.5834C18.7089 23.5637 17.4963 21.8138 16.1325 20.0168C16.0679 19.9317 16.0443 19.8222 16.0682 19.7181C16.0695 19.7125 16.0711 19.7063 16.0726 19.7008C16.7014 17.4561 17.799 16.9849 18.6091 16.9849C19.3509 16.9849 20.1515 17.3933 20.9242 18.166C21.3618 18.6037 21.7326 19.1244 22.1252 19.6757C23.2115 21.2009 24.5634 23.0992 28.2563 24.3016C28.3652 24.337 28.4508 24.4221 28.487 24.5307C28.8757 25.6967 30.0001 27.442 31.9903 28.8439C32.8246 29.4315 34.7951 30.9937 35.0725 32.8052C35.1816 33.5171 35.0141 34.169 34.5749 34.743C34.5063 34.8322 34.4002 34.8843 34.2882 34.8843ZM16.8173 19.7255C18.1533 21.494 19.3362 23.2064 19.9224 24.2227C21.0378 26.156 22.2867 27.9688 26.2886 30.5824C29.8032 32.8775 32.2302 33.9862 34.1097 34.1492C34.3469 33.7742 34.4284 33.3685 34.3589 32.9143C34.1955 31.8479 33.1547 30.5468 31.5745 29.4338C29.5356 27.9978 28.3362 26.2009 27.8631 24.9316C24.072 23.6535 22.6681 21.6825 21.5371 20.0943C21.1625 19.5682 20.8086 19.0713 20.4136 18.6763C19.7792 18.0419 19.1552 17.7067 18.609 17.7067C17.6508 17.7067 17.1102 18.7669 16.8173 19.7255Z" fill="black"/>
<path d="M11.605 14.6444C11.5074 14.6444 11.4137 14.6049 11.3456 14.5344C10.1387 13.2877 9.32326 12.3721 8.85264 11.7353C8.78603 11.6452 8.76512 11.5293 8.79588 11.4216C9.10538 10.3383 10.8567 8.32148 13.605 6.56281C13.7007 6.50161 13.8195 6.48906 13.9259 6.52868C14.0323 6.56847 14.1137 6.65592 14.1458 6.76485C14.487 7.92469 14.4172 9.3079 13.9436 10.7651C13.5279 12.0443 12.7974 13.3739 11.8866 14.5093C11.8217 14.5901 11.7253 14.6391 11.6218 14.644C11.6161 14.6443 11.6105 14.6444 11.605 14.6444ZM9.5472 11.457C9.97098 12.0057 10.6379 12.754 11.5748 13.7318C12.8115 12.0674 13.9445 9.60125 13.5662 7.4526C11.447 8.88905 9.92807 10.5299 9.5472 11.457Z" fill="black"/>
<path d="M27.2776 16.7741C27.2719 16.7741 27.2661 16.774 27.2604 16.7737L25.8311 16.7066C25.632 16.6972 25.4781 16.5282 25.4875 16.3291C25.4969 16.13 25.6669 15.9753 25.865 15.9855L27.2944 16.0526C27.4934 16.062 27.6473 16.231 27.6379 16.4301C27.6288 16.6234 27.4692 16.7741 27.2776 16.7741Z" fill="black"/>
<path d="M27.5169 18.8756C27.51 18.8756 27.5031 18.8754 27.4961 18.875L26.3113 18.8076C26.1123 18.7963 25.9601 18.6258 25.9714 18.4268C25.9828 18.2278 26.1529 18.0762 26.3523 18.0869L27.5371 18.1542C27.7361 18.1656 27.8882 18.3361 27.8769 18.5351C27.866 18.7272 27.7069 18.8756 27.5169 18.8756Z" fill="black"/>
<path d="M27.6842 20.8553C27.678 20.8553 27.6719 20.8552 27.6655 20.8549L26.6166 20.8016C26.4175 20.7914 26.2644 20.6219 26.2745 20.4228C26.2846 20.2237 26.4548 20.0724 26.6533 20.0806L27.7022 20.134C27.9013 20.1441 28.0545 20.3137 28.0444 20.5128C28.0346 20.7056 27.8752 20.8553 27.6842 20.8553Z" fill="black"/>
</svg>
